Coordinates
version=1
nRows=13
nColumns=36
inDegrees=yes

Units are S.I. units (second, meters, Newtons, ...)
If the header above contains a line with 'inDegrees', this indicates whether rotational values are in degrees (yes) or radians (no).

endheader
time	pelvis_tilt	pelvis_list	pelvis_rotation	pelvis_tx	pelvis_ty	pelvis_tz	hip_flexion_r	hip_adduction_r	hip_rotation_r	knee_angle_r	knee_angle_r_beta	ankle_angle_r	subtalar_angle_r	mtp_angle_r	hip_flexion_l	hip_adduction_l	hip_rotation_l	knee_angle_l	knee_angle_l_beta	ankle_angle_l	subtalar_angle_l	mtp_angle_l	lumbar_extension	lumbar_bending	lumbar_rotation	arm_flex_r	arm_add_r	arm_rot_r	elbow_flex_r	pro_sup_r	arm_flex_l	arm_add_l	arm_rot_l	elbow_flex_l	pro_sup_l
      4.00000000	     -6.61482931	      0.32233680	      1.91473082	      0.40571855	      0.95097631	     -0.05018182	     -0.11416149	     -5.76659379	     -3.37111094	      0.99661004	      0.01739413	      4.78376374	      3.49536711	     -7.49999987	      3.79351221	     -3.00412277	      0.31613234	      0.75038512	      0.01309669	      3.03869611	     -0.12224308	     -7.49999987	      7.68615950	      0.00609220	      4.78248541	   -189.91478842	     -1.49347355	   -291.93090799	     35.13275971	     81.15822293	    165.97802535	     -3.65688501	     56.32500827	     34.61607475	     87.87386129
      4.01694920	     -6.58500243	      0.34039955	      1.92298600	      0.40651155	      0.95061583	     -0.05002650	     -0.17921653	     -5.80445603	     -3.49888118	      0.99449702	      0.01735725	      4.72674343	      3.61529462	     -7.49999987	      3.75362255	     -2.99126906	      0.28089638	      0.75752500	      0.01322131	      2.92001033	     -0.29743317	     -7.49999987	      7.69224186	     -0.03162230	      4.81754914	   -190.03118055	     -1.53415869	   -291.55627278	     35.51370656	     77.02963828	    165.98464577	     -3.81342525	     56.79920970	     35.12644718	     85.44957559
      4.03389830	     -6.59155584	      0.33999698	      1.88992981	      0.40757021	      0.94816409	     -0.04947804	     -0.22247429	     -5.78519534	     -3.50452452	      1.02700176	      0.01792456	      4.69305134	      3.44185421	     -7.49999987	      3.73388693	     -2.98259784	      0.16542750	      0.74828799	      0.01306009	      2.96297494	     -0.10875940	     -7.49999987	      7.75079149	     -0.05084772	      4.82291964	   -189.89325367	     -1.24847955	   -291.83545820	     34.91361120	     81.13103709	    166.00612048	     -3.77487106	     56.70511928	     35.17728904	     87.59127865
      4.05084750	     -6.63210283	      0.33588271	      1.86486666	      0.40723045	      0.94759888	     -0.04968034	     -0.21640819	     -5.75630412	     -3.61881066	      1.06582179	      0.01860210	      4.73016989	      3.37145861	     -7.49999987	      3.76792943	     -2.97714784	      0.15608998	      0.74217342	      0.01295337	      2.98930745	     -0.11384833	     -7.49999987	      7.76830486	     -0.04578581	      4.68980815	   -189.48111619	     -0.97414034	   -290.15551321	     34.11338459	     75.59466648	    166.51705082	     -3.90505070	     58.74553113	     34.81748095	     84.61991064
      4.06779660	     -6.67541977	      0.33959020	      1.80638221	      0.40714579	      0.94970067	     -0.05010113	     -0.18584447	     -5.72671939	     -3.60347844	      1.08219350	      0.01888784	      4.80645452	      3.38326463	     -7.49999987	      3.79684771	     -2.97363396	      0.06036987	      0.72943110	      0.01273097	      3.03180858	      0.08446477	     -7.49999987	      7.83393883	     -0.06635980	      4.54289651	   -189.58507429	     -0.97032055	   -290.50093260	     33.80244250	     78.41627536	    166.69348055	     -3.79754132	     59.33719384	     34.10609570	     86.45550576
      4.08474580	     -6.70987496	      0.33832107	      1.81876090	      0.40826440	      0.94942679	     -0.05055695	     -0.21082273	     -5.70388148	     -3.57452331	      1.06713378	      0.01862500	      4.85389086	      3.32445028	     -7.49999987	      3.81927070	     -2.95596557	      0.10836234	      0.70750513	      0.01234829	      3.04983226	      0.12678197	     -7.49999987	      7.94320293	     -0.06067997	      4.62838400	   -189.53771917	     -0.81045888	   -291.02042550	     32.90175944	     80.59313531	    166.66836622	     -3.76327431	     59.33173666	     33.56539233	     86.60461731
      4.10169490	     -6.73678284	      0.32673030	      1.85493442	      0.40781387	      0.94873205	     -0.05128781	     -0.22517754	     -5.68581850	     -3.64435941	      1.06941260	      0.01866477	      4.86006362	      3.29560044	     -7.49999987	      3.84314495	     -2.93662013	      0.24624162	      0.70297135	      0.01226916	      3.06089365	      0.02912167	     -7.49999987	      8.01929243	     -0.00258194	      4.56055417	   -189.47764392	     -0.90108742	   -291.23381266	     32.52163998	     80.40330900	    166.80728654	     -3.87960752	     59.81631964	     32.67937111	     86.48273205
      4.11864410	     -6.74176939	      0.33140948	      1.86925477	      0.40687083	      0.94929277	     -0.05106505	     -0.22140990	     -5.68492312	     -3.67031982	      1.09837517	      0.01917026	      4.87409040	      3.17144022	     -7.49999987	      3.86118939	     -2.89177844	      0.22182518	      0.69739898	      0.01217191	      3.09470756	      0.07945864	     -7.49999987	      8.04208823	      0.05088938	      4.51808711	   -189.49340540	     -1.09986775	   -291.35150378	     32.28472090	     80.39769145	    166.89323776	     -4.02593684	     59.88110471	     31.68776895	     86.62884830
      4.13559320	     -6.70606908	      0.32382706	      1.89037013	      0.40533833	      0.95021650	     -0.04971476	     -0.23320397	     -5.64698244	     -3.78106176	      1.10820597	      0.01934184	      4.89619894	      3.25592401	     -7.49999987	      3.84964264	     -2.89238419	      0.16593953	      0.68827325	      0.01201263	      3.14521969	      0.23737635	     -7.49999987	      7.97711845	      0.06574847	      4.25032693	   -189.38644435	     -1.41872777	   -290.32295735	     32.32295195	     73.73235856	    166.92023393	     -4.78209362	     60.83195092	     31.41133202	     82.64556149
      4.15254240	     -6.66785620	      0.31158914	      1.90967063	      0.40540971	      0.94469745	     -0.05249143	     -0.23674018	     -5.68415419	     -4.03570017	      1.18735473	      0.02072325	      4.94360621	      3.48107307	     -7.49999987	      3.83728261	     -2.84157309	      0.19929877	      0.68736610	      0.01199680	      3.08180221	     -0.29357823	     -7.49999987	      7.81475562	      0.20739348	      4.84768499	   -188.41883776	     -1.93114017	   -287.81526548	     31.86272352	     73.21639050	    166.51492699	     -5.16597182	     59.09949194	     30.34191881	     82.04634110
      4.16949150	     -6.72584841	      0.31732041	      1.90667957	      0.40392451	      0.94638412	     -0.05228260	     -0.08955528	     -5.71251796	     -3.65458606	      1.22758830	      0.02142546	      4.73222558	      2.59906854	     -7.49999987	      3.92752531	     -2.82259777	      0.17586756	      0.69361351	      0.01210584	      3.17385881	     -0.29781396	     -7.49999987	      8.01516160	      0.08952949	      4.28644958	   -189.44023386	     -2.93611933	   -292.01396787	     32.74406435	     80.38603749	    166.16177135	     -5.86411686	     58.76928970	     29.73785247	     87.00455755
      4.18644070	     -6.76385313	      0.27979076	      1.89412388	      0.40383027	      0.94625897	     -0.05059521	      0.00256085	     -5.67903429	     -3.53492551	      1.23012359	      0.02146971	      4.77486743	      2.52880006	     -7.49999987	      4.02756336	     -2.84871061	      0.20333211	      0.68631236	      0.01197841	      3.18288285	     -0.33685605	     -7.49999987	      8.08201257	      0.03027802	      4.41725291	   -189.28717159	     -3.87890749	   -291.74176470	     32.86747630	     80.19655068	    165.64133648	     -6.83448988	     58.41678818	     29.71331529	     86.93031421
      4.20338980	     -6.68894618	      0.25272255	      1.89722972	      0.40496933	      0.94843839	     -0.04839332	     -0.04971223	     -5.60885779	     -3.44735969	      1.21562776	      0.02121671	      4.76398005	      2.40086851	     -7.49999987	      3.95809474	     -2.93740232	      0.28305423	      0.68647003	      0.01198116	      3.11333645	     -0.51315355	     -7.49999987	      8.00167036	     -0.01235653	      4.34077791	   -188.87078452	     -5.17975266	   -289.90464949	     33.37863611	     73.53543883	    165.97202144	     -8.31833296	     61.70856384	     29.48956124	     82.56328611
